# xmcd
#
# Track frame offsets:
#	150
#	9002
#	21172
#	31955
#	41917
#	54160
#	65987
#	76207
#	87970
#	98712
#	108670
#
# Disc length: 1589 seconds
#
# Revision: 0
# Processed by: cddbd v1.5.1PL0 Copyright (c) Steve Scherf et al.
# Submitted via: EasyCDDAExtractor 8.0.2.1
#
DISCID=8106330b
DTITLE=Danny Davis And The Nashville Brass - The Nashville Sound
DYEAR=1972
DGENRE=Acid
TTITLE0=Mule Skinner Blues
TTITLE1=Let It Be Me
TTITLE2=On The Rebound
TTITLE3=I Fall To Pieces
TTITLE4=I Saw The Light
TTITLE5=I've Got A New Heartache
TTITLE6=The Middle Of The Road
TTITLE7=Maiden's Prayer
TTITLE8=Mountain Dew
TTITLE9=Here Come My Baby Back Again
TTITLE10=Jambalaya
EXTD=
EXTT0=
EXTT1=
EXTT2=
EXTT3=
EXTT4=
EXTT5=
EXTT6=
EXTT7=
EXTT8=
EXTT9=
EXTT10=
PLAYORDER=
